# File created by Blade
# Date/Time:  Mon Sep 22 15:50:36 2014
# Frame Rate: 120.000 fps
#------------------------------------------------------
:FULLY-SPECIFIED
:DEGREES
4201
root 2.675224 37.109495 3.116173 1.086438 7.196234 3.448111
RightUpLeg 9.277815 -13.335388 -6.036805
RightLeg -5.370222 -0.000000 0.000000
RightFoot -13.452321 -17.670913 17.258336
RightToeBase 12.694897 -0.000000 -0.000000
LeftUpLeg 4.686184 -7.707886 -0.904363
LeftLeg -2.478719 -0.000000 0.000000
LeftFoot -8.459569 13.196701 -17.659887
LeftToeBase 8.081944 -0.000000 -0.000000
Spine 6.086960 22.817632 1.868659
RightShoulder 6.334506 -32.239911 -19.066260
RightArm 11.278915 -29.348848 65.645997
RightForeArm 16.742401 0.000000 54.318312
RightHand 3.874300 -0.000000 -3.290949
RightHandThumb1 -24.326973 -0.000000 -32.862282
LeftShoulder -34.025036 40.185720 2.532087
LeftArm 21.653198 8.303094 -19.825090
LeftForeArm -53.957469 -0.000000 53.987833
LeftHand -32.043487 -0.000000 -18.466850
LeftHandThumb1 -26.253704 0.000000 33.147579
Head 16.435387 -10.069872 5.336696
4202
root 2.668274 37.109535 3.124501 0.986150 7.072581 3.419559
RightUpLeg 9.332403 -13.272020 -6.027534
RightLeg -5.305016 -0.000000 0.000000
RightFoot -13.456629 -17.584119 17.262775
RightToeBase 12.642925 -0.000000 -0.000000
LeftUpLeg 4.781786 -7.646835 -0.889749
LeftLeg -2.423213 -0.000000 0.000000
LeftFoot -8.536785 13.244819 -17.678949
LeftToeBase 8.070763 -0.000000 -0.000000
Spine 6.158232 22.906908 1.869603
RightShoulder 6.374608 -32.161594 -19.098805
RightArm 11.215687 -29.481545 65.699258
RightForeArm 16.757431 -0.000000 54.412302
RightHand 3.831996 -0.000000 -3.082929
RightHandThumb1 -24.326973 -0.000000 -32.862282
LeftShoulder -34.026181 40.158970 2.587644
LeftArm 21.537735 8.048152 -19.908025
LeftForeArm -53.960488 -0.000000 54.230608
LeftHand -31.991015 -0.000000 -18.287191
LeftHandThumb1 -26.253704 0.000000 33.147579
Head 16.460870 -10.049643 5.333327
4203
root 2.662084 37.109385 3.131786 0.888297 6.966836 3.393553
RightUpLeg 9.394643 -13.191715 -6.017155
RightLeg -5.259749 -0.000000 0.000000
RightFoot -13.479601 -17.547359 17.248773
RightToeBase 12.706053 -0.000000 -0.000000
LeftUpLeg 4.868186 -7.592087 -0.878796
LeftLeg -2.361355 -0.000000 0.000000
LeftFoot -8.599309 13.304271 -17.646398
LeftToeBase 8.059458 -0.000000 -0.000000
Spine 6.225916 22.991090 1.878328
RightShoulder 6.418442 -32.150967 -19.154875
RightArm 11.248088 -29.553260 65.752305
RightForeArm 16.675211 -0.000000 54.439196
RightHand 3.759706 0.000000 -2.927152
RightHandThumb1 -24.326973 -0.000000 -32.862282
LeftShoulder -33.977018 40.101390 2.677460
LeftArm 21.388942 7.759385 -20.017737
LeftForeArm -53.964126 -0.000000 54.483420
LeftHand -32.155148 -0.000000 -17.943601
LeftHandThumb1 -26.253704 0.000000 33.147579
Head 16.501264 -10.006302 5.306829
4204
root 2.658153 37.109103 3.138280 0.796123 6.895969 3.378427
RightUpLeg 9.464301 -13.117019 -6.017355
RightLeg -5.223829 -0.000000 0.000000
RightFoot -13.502834 -17.525463 17.273671
RightToeBase 12.713296 -0.000000 -0.000000
LeftUpLeg 4.940755 -7.538997 -0.876819
LeftLeg -2.291098 -0.000000 0.000000
LeftFoot -8.655312 13.326917 -17.625175
LeftToeBase 8.036997 -0.000000 -0.000000
Spine 6.286267 23.025196 1.879737
RightShoulder 6.453666 -32.129965 -19.197440
RightArm 11.291518 -29.685692 65.735940
RightForeArm 16.626028 -0.000000 54.496151
RightHand 3.735533 -0.000000 -2.705835
RightHandThumb1 -24.326973 -0.000000 -32.862282
LeftShoulder -33.945196 40.015964 2.768875
LeftArm 21.238030 7.440429 -20.150683
LeftForeArm -53.920702 0.000000 54.740387
LeftHand -32.230810 -0.000000 -17.556519
LeftHandThumb1 -26.253704 0.000000 33.147579
Head 16.554331 -9.978066 5.259786
4205
root 2.654993 37.108039 3.144571 0.712639 6.858761 3.367569
RightUpLeg 9.534724 -13.041932 -6.017973
RightLeg -5.194130 -0.000000 0.000000
RightFoot -13.530913 -17.541122 17.279009
RightToeBase 12.719826 -0.000000 -0.000000
LeftUpLeg 5.006114 -7.493042 -0.874957
LeftLeg -2.227918 -0.000000 0.000000
LeftFoot -8.705348 13.314067 -17.601783
LeftToeBase 8.033380 -0.000000 -0.000000
Spine 6.334562 23.035622 1.878143
RightShoulder 6.446971 -32.162062 -19.221226
RightArm 11.420773 -29.832912 65.644524
RightForeArm 16.622643 -0.000000 54.564729
RightHand 3.638466 -0.000000 -2.476705
RightHandThumb1 -24.326973 -0.000000 -32.862282
LeftShoulder -33.920186 39.934793 2.842948
LeftArm 21.096261 7.061719 -20.263158
LeftForeArm -53.928164 -0.000000 55.032558
LeftHand -32.447972 -0.000000 -17.184427
LeftHandThumb1 -26.253704 0.000000 33.147579
Head 16.615396 -9.968114 5.203378
4206
root 2.652921 37.106731 3.150054 0.642027 6.857114 3.359059
RightUpLeg 9.602087 -12.985841 -6.020892
RightLeg -5.165366 -0.000000 0.000000
RightFoot -13.576541 -17.564944 17.303060
RightToeBase 12.743668 -0.000000 -0.000000
LeftUpLeg 5.057659 -7.470396 -0.874506
LeftLeg -2.169015 -0.000000 0.000000
LeftFoot -8.748197 13.281167 -17.640119
LeftToeBase 8.010725 -0.000000 -0.000000
Spine 6.363662 23.000362 1.874635
RightShoulder 6.447266 -32.156232 -19.243979
RightArm 11.508905 -29.978298 65.569840
RightForeArm 16.580983 -0.000000 54.637794
RightHand 3.560754 0.000000 -2.271639
RightHandThumb1 -24.326973 -0.000000 -32.862282
LeftShoulder -33.975421 39.870006 2.849053
LeftArm 21.035398 6.654938 -20.311850
LeftForeArm -53.943518 -0.000000 55.277860
LeftHand -32.572405 -0.000000 -16.721068
LeftHandThumb1 -26.253704 0.000000 33.147579
Head 16.689334 -9.939439 5.128069
4207
root 2.652026 37.105050 3.155628 0.573774 6.879386 3.360423
RightUpLeg 9.671732 -12.948917 -6.032966
RightLeg -5.133358 -0.000000 0.000000
RightFoot -13.634407 -17.595685 17.336981
RightToeBase 12.736287 -0.000000 -0.000000
LeftUpLeg 5.113264 -7.453140 -0.879537
LeftLeg -2.132512 -0.000000 0.000000
LeftFoot -8.760298 13.247922 -17.563771
LeftToeBase 8.026627 -0.000000 -0.000000
Spine 6.383086 22.944427 1.863181
RightShoulder 6.481732 -32.138739 -19.273269
RightArm 11.539858 -30.078460 65.537525
RightForeArm 16.482670 0.000000 54.721439
RightHand 3.466451 -0.000000 -2.092838
RightHandThumb1 -24.326973 -0.000000 -32.862282
LeftShoulder -34.006409 39.761374 2.889017
LeftArm 20.957354 6.234630 -20.359868
LeftForeArm -53.897288 -0.000000 55.552696
LeftHand -32.743330 -0.000000 -16.375912
LeftHandThumb1 -26.253704 0.000000 33.147579
Head 16.777266 -9.843533 5.069101
4208
root 2.652251 37.103075 3.161663 0.514303 6.927744 3.370595
RightUpLeg 9.746566 -12.915945 -6.049348
RightLeg -5.122545 -0.000000 0.000000
RightFoot -13.693428 -17.672046 17.358793
RightToeBase 12.766946 -0.000000 -0.000000
LeftUpLeg 5.165124 -7.444654 -0.892932
LeftLeg -2.103774 -0.000000 0.000000
LeftFoot -8.769994 13.189619 -17.551197
LeftToeBase 8.006092 -0.000000 -0.000000
Spine 6.380336 22.871769 1.837098
RightShoulder 6.500293 -32.123041 -19.274068
RightArm 11.561068 -30.193321 65.479592
RightForeArm 16.395052 -0.000000 54.827169
RightHand 3.416531 0.000000 -1.913368
RightHandThumb1 -24.326973 -0.000000 -32.862282
LeftShoulder -34.014932 39.632208 2.957906
LeftArm 20.860434 5.775827 -20.435373
LeftForeArm -53.783403 -0.000000 55.829649
LeftHand -32.827438 -0.000000 -16.212487
LeftHandThumb1 -26.253704 0.000000 33.147579
Head 16.879746 -9.749674 5.019894
4209
root 2.652347 37.101111 3.167165 0.469941 7.001276 3.377727
RightUpLeg 9.812342 -12.922303 -6.060604
RightLeg -5.109901 -0.000000 0.000000
RightFoot -13.740917 -17.725714 17.366468
RightToeBase 12.771083 -0.000000 -0.000000
LeftUpLeg 5.196910 -7.425115 -0.897381
LeftLeg -2.073731 -0.000000 0.000000
LeftFoot -8.767992 13.100050 -17.504642
LeftToeBase 8.013455 -0.000000 -0.000000
Spine 6.353124 22.802194 1.810575
RightShoulder 6.498413 -32.186690 -19.262813
RightArm 11.646603 -30.252662 65.397501
RightForeArm 16.280300 -0.000000 54.925380
RightHand 3.398305 -0.000000 -1.684828
RightHandThumb1 -24.326973 -0.000000 -32.862282
LeftShoulder -33.980631 39.542160 3.049039
LeftArm 20.748134 5.198423 -20.585439
LeftForeArm -53.691773 -0.000000 56.128454
LeftHand -32.816944 -0.000000 -16.094377
LeftHandThumb1 -26.253704 0.000000 33.147579
Head 16.996114 -9.725145 4.960684
4210
root 2.653525 37.099476 3.171733 0.442457 7.084264 3.401228
RightUpLeg 9.870351 -12.917008 -6.082187
RightLeg -5.111613 -0.000000 0.000000
RightFoot -13.801771 -17.814111 17.384397
RightToeBase 12.783944 -0.000000 -0.000000
LeftUpLeg 5.206828 -7.374394 -0.915012
LeftLeg -2.038358 -0.000000 0.000000
LeftFoot -8.739383 12.974807 -17.468832
LeftToeBase 8.002320 -0.000000 -0.000000
Spine 6.309116 22.736783 1.750911
RightShoulder 6.467214 -32.195858 -19.213772
RightArm 11.683868 -30.324801 65.332167
RightForeArm 16.187683 0.000000 55.007090
RightHand 3.409543 0.000000 -1.483472
RightHandThumb1 -24.326973 -0.000000 -32.862282
LeftShoulder -33.946721 39.453657 3.167880
LeftArm 20.639091 4.494065 -20.845186
LeftForeArm -53.609476 -0.000000 56.436866
LeftHand -32.775645 -0.000000 -15.910703
LeftHandThumb1 -26.253704 0.000000 33.147579
Head 17.094051 -9.704484 4.927888
4211
root 2.656136 37.097772 3.176290 0.426323 7.183616 3.424810
RightUpLeg 9.920365 -12.961082 -6.110167
RightLeg -5.111778 -0.000000 0.000000
RightFoot -13.846709 -17.862559 17.395272
RightToeBase 12.787613 -0.000000 -0.000000
LeftUpLeg 5.220683 -7.364175 -0.934109
LeftLeg -2.034385 -0.000000 0.000000
LeftFoot -8.711017 12.872362 -17.445999
LeftToeBase 7.991625 -0.000000 -0.000000
Spine 6.247794 22.667129 1.693618
RightShoulder 6.406434 -32.240246 -19.158099
RightArm 11.758976 -30.376027 65.250140
RightForeArm 16.075879 -0.000000 55.083208
RightHand 3.326484 0.000000 -1.357656
RightHandThumb1 -24.326973 -0.000000 -32.862282
LeftShoulder -33.917871 39.327375 3.298306
LeftArm 20.527084 3.685269 -21.175968
LeftForeArm -53.573632 -0.000000 56.776945
LeftHand -32.730252 -0.000000 -15.846415
LeftHandThumb1 -26.253704 0.000000 33.147579
Head 17.194507 -9.677693 4.882261
4212
root 2.658070 37.096203 3.179408 0.427379 7.291270 3.435319
RightUpLeg 9.947702 -13.036129 -6.119103
RightLeg -5.109628 -0.000000 0.000000
RightFoot -13.898564 -17.916931 17.411065
RightToeBase 12.832824 -0.000000 -0.000000
LeftUpLeg 5.226942 -7.405281 -0.940234
LeftLeg -2.060078 -0.000000 0.000000
LeftFoot -8.666027 12.788445 -17.514860
LeftToeBase 7.875530 -0.000000 -0.000000
Spine 6.164615 22.591286 1.648638
RightShoulder 6.363509 -32.279659 -19.118915
RightArm 11.813773 -30.399131 65.206054
RightForeArm 15.935702 0.000000 55.160274
RightHand 3.227588 -0.000000 -1.284146
RightHandThumb1 -24.326973 -0.000000 -32.862282
LeftShoulder -33.965349 39.226367 3.337102
LeftArm 20.452340 2.728407 -21.523295
LeftForeArm -53.425661 -0.000000 57.164483
LeftHand -32.640079 0.000000 -15.679382
LeftHandThumb1 -26.253704 0.000000 33.147579
Head 17.289238 -9.652737 4.830947
4213
root 2.661471 37.095017 3.181300 0.441954 7.403269 3.456211
RightUpLeg 9.969353 -13.104226 -6.138766
RightLeg -5.121286 -0.000000 0.000000
RightFoot -13.940356 -17.965980 17.432383
RightToeBase 12.866446 -0.000000 -0.000000
LeftUpLeg 5.212543 -7.417865 -0.956869
LeftLeg -2.069902 -0.000000 0.000000
LeftFoot -8.646353 12.733098 -17.388095
LeftToeBase 8.036400 -0.000000 -0.000000
Spine 6.069094 22.515070 1.595517
RightShoulder 6.337917 -32.289563 -19.088433
RightArm 11.802622 -30.385250 65.222236
RightForeArm 15.811744 0.000000 55.237414
RightHand 3.235444 -0.000000 -1.206467
RightHandThumb1 -24.326973 -0.000000 -32.862282
LeftShoulder -34.020120 39.069803 3.339159
LeftArm 20.335735 1.755869 -21.814390
LeftForeArm -53.513068 -0.000000 57.643317
LeftHand -32.396877 0.000000 -15.323861
LeftHandThumb1 -26.253704 0.000000 33.147579
Head 17.384329 -9.641180 4.782524
